<?xml version="1.0" encoding="utf-8" standalone="no"?>
<!DOCTYPE svg PUBLIC "-//W3C//DTD SVG 1.1//EN"
  "http://www.w3.org/Graphics/SVG/1.1/DTD/svg11.dtd">
<svg xmlns:xlink="http://www.w3.org/1999/xlink" width="486.000465pt" height="27.639743pt" viewBox="0 0 486.000465 27.639743" xmlns="http://www.w3.org/2000/svg" version="1.1">
 <metadata>
  <rdf:RDF xmlns:dc="http://purl.org/dc/elements/1.1/" xmlns:cc="http://creativecommons.org/ns#" xmlns:rdf="http://www.w3.org/1999/02/22-rdf-syntax-ns#">
   <cc:Work>
    <dc:type rdf:resource="http://purl.org/dc/dcmitype/StillImage"/>
    <dc:date>2026-09-23T20:55:52.950133</dc:date>
    <dc:format>image/svg+xml</dc:format>
    <dc:creator>
     <cc:Agent>
      <dc:title>Matplotlib v3.11.2, https://matplotlib.org/</dc:title>
     </cc:Agent>
    </dc:creator>
   </cc:Work>
  </rdf:RDF>
 </metadata>
 <defs>
  <style type="text/css">*{stroke-linejoin: round; stroke-linecap: butt}</style>
 </defs>
 <g id="figure_1">
  <g id="patch_1">
   <path d="M 0 27.639743 
L 486.000465 27.639743 
L 486.000465 -0 
L 0 -0 
L 0 27.639743 
z
" style="fill: none"/>
  </g>
  <g id="text_1">
   <!-- $\displaystyle \text{navigate by } s_{\mathrm{dense}}(q,x),\qquad \text{admit } x \text{ if } S_{\mathrm{semantic}}(x)\geq\tau$ -->
   <g style="fill: #1e2328" transform="translate(2.88 19.298624) scale(0.22 -0.22)">
    <defs>
     <path id="CMSS17-70" d="M 2617 1878 
C 2617 2283 2521 2816 1798 2816 
C 1388 2816 1120 2604 940 2386 
L 940 2783 
L 473 2783 
L 473 0 
L 960 0 
L 960 1556 
C 960 1962 1113 2425 1548 2425 
C 2112 2425 2131 2045 2131 1826 
L 2131 0 
L 2617 0 
L 2617 1878 
z
" transform="scale(0.015625)"/>
     <path id="CMSS17-63" d="M 2406 1789 
C 2406 2399 1977 2816 1401 2816 
C 1120 2816 812 2764 460 2559 
L 499 2133 
C 659 2250 934 2438 1395 2438 
C 1721 2438 1920 2185 1920 1782 
L 1920 1536 
C 896 1504 256 1209 256 711 
C 256 452 416 -64 947 -64 
C 1043 -64 1561 -52 1932 224 
L 1932 -13 
L 2406 -13 
L 2406 1789 
z
M 1920 824 
C 1920 711 1920 559 1728 446 
C 1561 339 1350 326 1260 326 
C 940 326 723 503 723 723 
C 723 1165 1721 1209 1920 1216 
L 1920 824 
z
" transform="scale(0.015625)"/>
     <path id="CMSS17-78" d="M 2675 2752 
L 2176 2752 
L 1747 1555 
C 1612 1164 1420 627 1388 352 
L 1382 352 
C 1369 467 1318 633 1286 748 
C 1248 889 1196 1056 1158 1171 
L 595 2752 
L 83 2752 
L 1094 0 
L 1664 0 
L 2675 2752 
z
" transform="scale(0.015625)"/>
     <path id="CMSS17-6b" d="M 979 4224 
L 441 4224 
L 441 3686 
L 979 3686 
L 979 4224 
z
M 947 2752 
L 473 2752 
L 473 0 
L 947 0 
L 947 2752 
z
" transform="scale(0.015625)"/>
     <path id="CMSS17-69" d="M 2848 2816 
C 2483 2809 2169 2739 1913 2617 
C 1702 2783 1484 2816 1337 2816 
C 780 2816 358 2356 358 1824 
C 358 1481 550 1222 563 1209 
C 448 1049 384 876 384 684 
C 384 460 473 300 544 211 
C 211 6 166 -308 166 -429 
C 166 -896 748 -1280 1497 -1280 
C 2252 -1280 2835 -896 2835 -423 
C 2835 460 1856 467 1587 467 
L 1068 467 
C 972 467 716 467 716 793 
C 716 921 774 1004 780 1011 
C 876 940 1075 832 1337 832 
C 1868 832 2310 1279 2310 1824 
C 2310 2128 2169 2349 2112 2425 
L 2131 2425 
C 2150 2425 2419 2444 2515 2444 
C 2720 2444 2739 2438 2918 2419 
L 2848 2816 
z
M 1337 1184 
C 1120 1184 812 1317 812 1824 
C 812 2375 1164 2463 1331 2463 
C 1548 2463 1856 2330 1856 1824 
C 1856 1272 1504 1184 1337 1184 
z
M 1580 0 
C 1734 0 2380 0 2380 -436 
C 2380 -711 1984 -928 1504 -928 
C 1017 -928 620 -717 620 -429 
C 620 -397 620 0 1062 0 
L 1580 0 
z
" transform="scale(0.015625)"/>
     <path id="CMSS17-76" d="M 1068 2380 
L 1900 2380 
L 1900 2752 
L 1068 2752 
L 1068 3520 
L 614 3520 
L 614 2752 
L 108 2752 
L 108 2380 
L 601 2380 
L 601 751 
C 601 384 684 -64 1107 -64 
C 1427 -64 1721 25 2003 172 
L 1900 551 
C 1747 416 1561 339 1363 339 
C 1081 339 1068 699 1068 860 
L 1068 2380 
z
" transform="scale(0.015625)"/>
     <path id="CMSS17-67" d="M 2502 1375 
C 2502 1587 2489 2001 2284 2347 
C 2060 2713 1696 2816 1420 2816 
C 755 2816 192 2184 192 1363 
C 192 579 774 -64 1510 -64 
C 1798 -64 2150 19 2470 249 
C 2470 275 2457 414 2451 421 
C 2451 433 2432 629 2432 655 
C 2124 408 1772 326 1516 326 
C 1107 326 665 667 646 1375 
L 2502 1375 
z
M 697 1728 
C 780 2086 1062 2425 1420 2425 
C 1516 2425 1964 2412 2080 1728 
L 697 1728 
z
" transform="scale(0.015625)"/>
     <path id="CMSS17-64" d="M 953 4416 
L 480 4416 
L 480 -13 
L 966 -13 
L 966 275 
C 1209 38 1504 -64 1766 -64 
C 2380 -64 2880 559 2880 1382 
C 2880 2133 2496 2816 1926 2816 
C 1523 2816 1164 2649 953 2476 
L 953 4416 
z
M 966 2095 
C 1107 2276 1305 2425 1587 2425 
C 1964 2425 2393 2146 2393 1382 
C 2393 566 1881 326 1529 326 
C 1401 326 1267 358 1139 468 
C 966 624 966 721 966 812 
L 966 2095 
z
" transform="scale(0.015625)"/>
     <path id="CMSS17-7b" d="M 2675 2752 
L 2176 2752 
C 1632 1293 1446 701 1433 383 
L 1427 383 
C 1408 695 1126 1459 902 2006 
L 601 2752 
L 83 2752 
L 1216 14 
C 1145 -177 1043 -464 1011 -527 
C 870 -884 774 -884 672 -884 
C 646 -884 441 -877 211 -807 
L 249 -1229 
C 409 -1261 569 -1280 684 -1280 
C 844 -1280 1164 -1280 1459 -495 
L 2675 2752 
z
" transform="scale(0.015625)"/>
     <path id="CMMI12-74" d="M 1459 1290 
C 1568 1271 1740 1233 1779 1227 
C 1862 1201 2150 1099 2150 793 
C 2150 595 1971 64 1228 64 
C 1094 64 614 83 486 447 
C 742 414 870 614 870 755 
C 870 889 780 960 652 960 
C 512 960 326 851 326 563 
C 326 176 710 -64 1222 -64 
C 2195 -64 2483 665 2483 998 
C 2483 1093 2483 1271 2278 1475 
C 2118 1627 1964 1659 1619 1729 
C 1446 1767 1171 1824 1171 2111 
C 1171 2239 1286 2687 1894 2687 
C 2163 2687 2425 2589 2489 2368 
C 2208 2368 2195 2124 2195 2118 
C 2195 1983 2316 1945 2374 1945 
C 2464 1945 2643 2015 2643 2284 
C 2643 2546 2400 2816 1900 2816 
C 1062 2816 838 2169 838 1907 
C 838 1424 1312 1322 1459 1290 
z
" transform="scale(0.015625)"/>
     <path id="CMR17-66" d="M 1868 4345 
L 1868 4179 
C 2246 4179 2304 4141 2304 3843 
L 2304 2371 
C 2278 2403 2016 2816 1497 2816 
C 844 2816 211 2228 211 1376 
C 211 529 806 -64 1433 -64 
C 1977 -64 2259 361 2291 406 
L 2291 -64 
L 3065 -13 
L 3065 154 
C 2688 154 2630 193 2630 503 
L 2630 4416 
L 1868 4345 
z
M 2291 762 
C 2291 568 2176 393 2028 264 
C 1811 70 1593 38 1472 38 
C 1286 38 620 135 620 1369 
C 620 2636 1363 2713 1529 2713 
C 1824 2713 2060 2545 2208 2313 
C 2291 2177 2291 2157 2291 2041 
L 2291 762 
z
" transform="scale(0.015625)"/>
     <path id="CMR17-67" d="M 2438 1503 
C 2464 1529 2464 1542 2464 1606 
C 2464 2251 2118 2816 1388 2816 
C 710 2816 172 2175 172 1394 
C 172 554 780 -64 1459 -64 
C 2176 -64 2457 619 2457 755 
C 2457 800 2419 800 2406 800 
C 2361 800 2355 787 2329 709 
C 2188 270 1836 51 1504 51 
C 1228 51 953 206 780 490 
C 582 819 582 1200 582 1503 
L 2438 1503 
z
M 588 1600 
C 633 2511 1126 2713 1382 2713 
C 1817 2713 2112 2308 2118 1600 
L 588 1600 
z
" transform="scale(0.015625)"/>
     <path id="CMR17-70" d="M 2656 1954 
C 2656 2282 2592 2816 1836 2816 
C 1331 2816 1068 2424 972 2166 
L 966 2166 
L 966 2816 
L 211 2745 
L 211 2578 
C 588 2578 646 2540 646 2231 
L 646 443 
C 646 198 620 166 211 166 
L 211 0 
C 364 12 646 12 812 12 
C 979 12 1267 12 1420 0 
L 1420 166 
C 1011 166 985 192 985 443 
L 985 1678 
C 985 2269 1344 2713 1792 2713 
C 2265 2713 2316 2289 2316 1980 
L 2316 443 
C 2316 198 2291 166 1881 166 
L 1881 0 
C 2035 12 2316 12 2483 12 
C 2649 12 2937 12 3091 0 
L 3091 166 
C 2681 166 2656 192 2656 443 
L 2656 1954 
z
" transform="scale(0.015625)"/>
     <path id="CMR17-75" d="M 1977 2688 
C 1977 2803 1971 2809 1932 2809 
C 1907 2809 1900 2803 1824 2707 
C 1804 2681 1747 2617 1728 2592 
C 1523 2809 1235 2816 1126 2816 
C 416 2816 160 2444 160 2073 
C 160 1497 812 1363 998 1324 
C 1401 1241 1542 1216 1676 1100 
C 1760 1024 1900 883 1900 652 
C 1900 384 1747 38 1158 38 
C 601 38 403 460 288 1024 
C 268 1113 268 1120 217 1120 
C 166 1120 160 1113 160 985 
L 160 64 
C 160 -52 166 -58 204 -58 
C 236 -58 243 -52 275 0 
C 313 57 409 211 448 275 
C 576 102 800 -64 1158 -64 
C 1792 -64 2131 281 2131 780 
C 2131 1107 1958 1280 1875 1356 
C 1683 1555 1459 1600 1190 1651 
C 838 1728 390 1817 390 2208 
C 390 2374 480 2726 1126 2726 
C 1811 2726 1849 2086 1862 1881 
C 1868 1849 1900 1843 1920 1843 
C 1977 1843 1977 1862 1977 1971 
L 1977 2688 
z
" transform="scale(0.015625)"/>
     <path id="CMR17-29" d="M 1958 -1562 
C 1958 -1556 1958 -1543 1939 -1524 
C 1644 -1223 857 -403 857 1596 
C 857 3595 1632 4408 1945 4729 
C 1945 4735 1958 4748 1958 4767 
C 1958 4787 1939 4800 1913 4800 
C 1843 4800 1299 4325 985 3620 
C 665 2909 576 2218 576 1603 
C 576 1141 620 360 1004 -467 
C 1312 -1133 1836 -1600 1913 -1600 
C 1945 -1600 1958 -1588 1958 -1562 
z
" transform="scale(0.015625)"/>
     <path id="CMMI12-72" d="M 2822 2751 
C 2822 2783 2796 2809 2764 2809 
C 2713 2809 2464 2579 2342 2356 
C 2227 2643 2028 2816 1753 2816 
C 1030 2816 249 1883 249 938 
C 249 306 620 -64 1056 -64 
C 1395 -64 1676 191 1811 338 
L 1817 332 
L 1574 -613 
L 1516 -838 
C 1459 -1025 1363 -1025 1062 -1031 
C 992 -1031 928 -1031 928 -1152 
C 928 -1197 966 -1216 1011 -1216 
C 1100 -1216 1216 -1204 1305 -1204 
L 1958 -1204 
C 2054 -1204 2163 -1216 2259 -1216 
C 2297 -1216 2374 -1216 2374 -1095 
C 2374 -1031 2323 -1031 2227 -1031 
C 1926 -1031 1907 -987 1907 -937 
C 1907 -906 1913 -900 1932 -819 
L 2822 2751 
z
M 1920 759 
C 1888 651 1888 638 1798 517 
C 1657 338 1376 64 1075 64 
C 812 64 665 300 665 676 
C 665 1028 864 1743 985 2011 
C 1203 2458 1504 2687 1753 2687 
C 2176 2687 2259 2164 2259 2113 
C 2259 2107 2240 2024 2233 2011 
L 1920 759 
z
" transform="scale(0.015625)"/>
     <path id="CMMI12-3c" d="M 1248 -26 
C 1248 345 1126 620 864 620 
C 659 620 556 454 556 313 
C 556 172 652 0 870 0 
C 953 0 1024 25 1081 83 
C 1094 96 1100 96 1107 96 
C 1120 96 1120 6 1120 -26 
C 1120 -233 1081 -642 710 -1051 
C 640 -1127 640 -1140 640 -1152 
C 640 -1184 672 -1216 704 -1216 
C 755 -1216 1248 -749 1248 -26 
z
" transform="scale(0.015625)"/>
     <path id="CMMI12-79" d="M 3033 2624 
C 2828 2585 2752 2431 2752 2310 
C 2752 2156 2873 2105 2963 2105 
C 3155 2105 3289 2271 3289 2444 
C 3289 2694 2982 2816 2713 2816 
C 2323 2816 2105 2451 2048 2329 
C 1900 2790 1504 2816 1388 2816 
C 736 2816 390 1993 390 1849 
C 390 1823 416 1790 460 1790 
C 512 1790 524 1829 537 1855 
C 755 2572 1184 2687 1369 2687 
C 1657 2687 1715 2438 1715 2284 
C 1715 2143 1676 1993 1600 1678 
L 1382 778 
C 1286 390 1100 64 761 64 
C 729 64 569 64 435 126 
C 665 166 716 358 716 435 
C 716 563 620 640 499 640 
C 345 640 179 505 179 300 
C 179 57 480 -64 755 -64 
C 1062 -64 1280 153 1414 415 
C 1516 64 1836 -64 2073 -64 
C 2726 -64 3072 751 3072 896 
C 3072 929 3046 955 3008 955 
C 2950 955 2944 922 2924 870 
C 2752 300 2380 64 2092 64 
C 1868 64 1747 204 1747 467 
C 1747 607 1772 712 1875 1146 
L 2099 2039 
C 2195 2425 2412 2687 2707 2687 
C 2720 2687 2899 2687 3033 2624 
z
" transform="scale(0.015625)"/>
     <path id="CMR17-2a" d="M 1683 1596 
C 1683 2057 1638 2839 1254 3665 
C 947 4332 422 4800 345 4800 
C 326 4800 300 4793 300 4761 
C 300 4748 307 4742 313 4729 
C 620 4408 1401 3595 1401 1603 
C 1401 -396 627 -1210 313 -1530 
C 307 -1543 300 -1549 300 -1562 
C 300 -1594 326 -1600 345 -1600 
C 416 -1600 960 -1127 1273 -422 
C 1593 289 1683 981 1683 1596 
z
" transform="scale(0.015625)"/>
     <path id="CMSS17-66" d="M 2611 4416 
L 2137 4416 
L 2137 2495 
C 1939 2662 1612 2816 1254 2816 
C 672 2816 211 2179 211 1375 
C 211 572 665 -64 1235 -64 
C 1676 -64 1971 172 2124 307 
L 2124 -13 
L 2611 -13 
L 2611 4416 
z
M 2124 851 
C 2124 760 2124 663 1926 488 
C 1798 378 1644 326 1497 326 
C 1152 326 697 585 697 1369 
C 697 2185 1209 2425 1561 2425 
C 1798 2425 1990 2308 2124 2114 
L 2124 851 
z
" transform="scale(0.015625)"/>
     <path id="CMSS17-6f" d="M 4288 1878 
C 4288 2309 4179 2816 3462 2816 
C 2982 2816 2694 2515 2566 2328 
C 2451 2668 2182 2816 1798 2816 
C 1363 2816 1088 2566 940 2386 
L 940 2783 
L 473 2783 
L 473 0 
L 960 0 
L 960 1556 
C 960 1936 1100 2425 1555 2425 
C 2137 2425 2137 2013 2137 1826 
L 2137 0 
L 2624 0 
L 2624 1556 
C 2624 1936 2764 2425 3219 2425 
C 3801 2425 3801 2013 3801 1826 
L 3801 0 
L 4288 0 
L 4288 1878 
z
" transform="scale(0.015625)"/>
     <path id="CMSS17-68" d="M 1075 2380 
L 1721 2380 
L 1721 2752 
L 1062 2752 
L 1062 3563 
C 1062 4013 1408 4089 1606 4089 
C 1670 4089 1849 4089 2080 4007 
L 2080 4428 
C 1932 4460 1753 4480 1612 4480 
C 1017 4480 601 3994 601 3366 
L 601 2752 
L 160 2752 
L 160 2380 
L 601 2380 
L 601 0 
L 1075 0 
L 1075 2380 
z
" transform="scale(0.015625)"/>
     <path id="CMMI12-54" d="M 4064 4422 
C 4064 4480 4019 4480 4006 4480 
C 3981 4480 3974 4473 3897 4377 
C 3859 4332 3597 4002 3590 3996 
C 3379 4409 2956 4480 2688 4480 
C 1875 4480 1139 3742 1139 3024 
C 1139 2547 1427 2268 1740 2160 
C 1811 2134 2188 2033 2380 1988 
C 2707 1899 2790 1874 2924 1734 
C 2950 1702 3078 1556 3078 1258 
C 3078 667 2528 57 1888 57 
C 1363 57 780 279 780 991 
C 780 1112 806 1264 825 1328 
C 825 1347 832 1378 832 1391 
C 832 1417 819 1448 768 1448 
C 710 1448 704 1436 678 1328 
L 352 25 
C 352 19 326 -64 326 -71 
C 326 -128 377 -128 390 -128 
C 416 -128 422 -122 499 -26 
L 793 356 
C 947 127 1280 -128 1875 -128 
C 2700 -128 3456 667 3456 1461 
C 3456 1728 3392 1963 3148 2198 
C 3014 2331 2899 2363 2310 2516 
C 1881 2630 1824 2649 1708 2751 
C 1600 2859 1516 3011 1516 3227 
C 1516 3761 2060 4307 2668 4307 
C 3296 4307 3590 3926 3590 3322 
C 3590 3157 3558 2986 3558 2960 
C 3558 2903 3609 2903 3629 2903 
C 3686 2903 3693 2922 3718 3024 
L 4064 4422 
z
" transform="scale(0.015625)"/>
     <path id="CMR17-6f" d="M 4326 1954 
C 4326 2276 4269 2816 3507 2816 
C 3072 2816 2771 2520 2656 2173 
L 2649 2173 
C 2572 2700 2195 2816 1836 2816 
C 1331 2816 1068 2424 972 2166 
L 966 2166 
L 966 2816 
L 211 2745 
L 211 2578 
C 588 2578 646 2540 646 2231 
L 646 443 
C 646 198 620 166 211 166 
L 211 0 
C 364 12 646 12 812 12 
C 979 12 1267 12 1420 0 
L 1420 166 
C 1011 166 985 192 985 443 
L 985 1678 
C 985 2269 1344 2713 1792 2713 
C 2265 2713 2316 2289 2316 1980 
L 2316 443 
C 2316 198 2291 166 1881 166 
L 1881 0 
C 2035 12 2316 12 2483 12 
C 2649 12 2937 12 3091 0 
L 3091 166 
C 2681 166 2656 192 2656 443 
L 2656 1678 
C 2656 2269 3014 2713 3462 2713 
C 3936 2713 3987 2289 3987 1980 
L 3987 443 
C 3987 198 3961 166 3552 166 
L 3552 0 
C 3705 12 3987 12 4153 12 
C 4320 12 4608 12 4761 0 
L 4761 166 
C 4352 166 4326 192 4326 443 
L 4326 1954 
z
" transform="scale(0.015625)"/>
     <path id="CMR17-63" d="M 2304 1656 
C 2304 2048 2304 2275 2035 2534 
C 1798 2751 1523 2816 1305 2816 
C 800 2816 435 2408 435 1977 
C 435 1740 627 1728 665 1728 
C 748 1728 896 1779 896 1958 
C 896 2118 774 2188 665 2188 
C 640 2188 608 2182 588 2176 
C 723 2594 1068 2713 1292 2713 
C 1612 2713 1964 2421 1964 1875 
L 1964 1632 
C 1587 1619 1132 1568 774 1373 
C 371 1147 256 822 256 576 
C 256 77 832 -64 1171 -64 
C 1523 -64 1849 135 1990 505 
C 2003 219 2182 -39 2464 -39 
C 2598 -39 2937 51 2937 563 
L 2937 926 
L 2822 926 
L 2822 557 
C 2822 161 2649 109 2566 109 
C 2304 109 2304 446 2304 732 
L 2304 1656 
z
M 1964 887 
C 1964 323 1568 38 1216 38 
C 896 38 646 278 646 576 
C 646 771 729 1114 1100 1322 
C 1408 1497 1760 1523 1964 1536 
L 1964 887 
z
" transform="scale(0.015625)"/>
     <path id="CMR17-76" d="M 966 2585 
L 1862 2585 
L 1862 2752 
L 966 2752 
L 966 3968 
L 851 3968 
C 838 3292 614 2700 70 2687 
L 70 2585 
L 627 2585 
L 627 778 
C 627 655 627 -64 1369 -64 
C 1747 -64 1964 308 1964 784 
L 1964 1151 
L 1849 1151 
L 1849 790 
C 1849 347 1676 51 1408 51 
C 1222 51 966 179 966 765 
L 966 2585 
z
" transform="scale(0.015625)"/>
     <path id="CMR17-6b" d="M 992 3961 
C 992 4102 876 4224 729 4224 
C 588 4224 467 4108 467 3961 
C 467 3820 582 3699 729 3699 
C 870 3699 992 3814 992 3961 
z
M 243 2745 
L 243 2579 
C 601 2579 652 2540 652 2231 
L 652 443 
C 652 198 627 166 217 166 
L 217 0 
C 371 12 646 12 806 12 
C 960 12 1222 12 1369 0 
L 1369 166 
C 992 166 979 205 979 436 
L 979 2816 
L 243 2745 
z
" transform="scale(0.015625)"/>
     <path id="CMR17-65" d="M 2233 2240 
C 2112 2240 1932 2240 1932 2015 
C 1932 1836 2080 1785 2163 1785 
C 2208 1785 2393 1804 2393 2028 
C 2393 2476 1958 2816 1465 2816 
C 787 2816 211 2201 211 1379 
C 211 521 812 -64 1465 -64 
C 2259 -64 2457 676 2457 747 
C 2457 773 2451 792 2406 792 
C 2361 792 2355 786 2329 702 
C 2163 180 1798 51 1523 51 
C 1113 51 620 431 620 1385 
C 620 2358 1094 2700 1472 2700 
C 1721 2700 2092 2582 2233 2240 
z
" transform="scale(0.015625)"/>
     <path id="CMSY10-16" d="M 4313 2092 
C 4403 2130 4441 2175 4441 2233 
C 4441 2297 4416 2336 4313 2381 
L 787 4051 
C 697 4096 672 4096 659 4096 
C 582 4096 531 4038 531 3967 
C 531 3890 582 3858 652 3826 
L 4013 2240 
L 665 653 
C 537 595 531 544 531 505 
C 531 435 588 377 659 377 
C 678 377 691 377 774 422 
L 4313 2092 
z
M 4217 -896 
C 4326 -896 4441 -896 4441 -768 
C 4441 -640 4307 -640 4211 -640 
L 761 -640 
C 665 -640 531 -640 531 -768 
C 531 -896 646 -896 755 -896 
L 4217 -896 
z
" transform="scale(0.015625)"/>
     <path id="CMMI12-1d" d="M 1836 2406 
L 2899 2406 
C 2982 2406 3193 2406 3193 2611 
C 3193 2752 3072 2752 2956 2752 
L 1196 2752 
C 1049 2752 832 2752 537 2438 
C 371 2253 166 1916 166 1878 
C 166 1839 198 1827 236 1827 
C 281 1827 288 1846 320 1884 
C 652 2406 985 2406 1145 2406 
L 1676 2406 
L 1011 223 
C 979 127 979 114 979 95 
C 979 25 1024 -64 1152 -64 
C 1350 -64 1382 108 1401 204 
L 1836 2406 
z
" transform="scale(0.015625)"/>
    </defs>
    <use xlink:href="#CMSS17-70" transform="scale(0.996264)"/>
    <use xlink:href="#CMSS17-63" transform="translate(48.204943 0) scale(0.996264)"/>
    <use xlink:href="#CMSS17-78" transform="translate(93.126864 0) scale(0.996264)"/>
    <use xlink:href="#CMSS17-6b" transform="translate(136.127005 0) scale(0.996264)"/>
    <use xlink:href="#CMSS17-69" transform="translate(158.307728 0) scale(0.996264)"/>
    <use xlink:href="#CMSS17-63" transform="translate(205.151352 0) scale(0.996264)"/>
    <use xlink:href="#CMSS17-76" transform="translate(250.073273 0) scale(0.996264)"/>
    <use xlink:href="#CMSS17-67" transform="translate(283.904839 0) scale(0.996264)"/>
    <use xlink:href="#CMSS17-64" transform="translate(356.772774 0) scale(0.996264)"/>
    <use xlink:href="#CMSS17-7b" transform="translate(402.375263 0) scale(0.996264)"/>
    <use xlink:href="#CMMI12-74" transform="translate(476.604518 0) scale(0.996264)"/>
    <use xlink:href="#CMR17-66" transform="translate(522.554565 -14.943915) scale(0.697382)"/>
    <use xlink:href="#CMR17-67" transform="translate(558.181174 -14.943915) scale(0.697382)"/>
    <use xlink:href="#CMR17-70" transform="translate(586.521005 -14.943915) scale(0.697382)"/>
    <use xlink:href="#CMR17-75" transform="translate(622.147614 -14.943915) scale(0.697382)"/>
    <use xlink:href="#CMR17-67" transform="translate(647.208436 -14.943915) scale(0.697382)"/>
    <use xlink:href="#CMR17-29" transform="translate(676.046399 0) scale(0.996264)"/>
    <use xlink:href="#CMMI12-72" transform="translate(711.327167 0) scale(0.996264)"/>
    <use xlink:href="#CMMI12-3c" transform="translate(758.153491 0) scale(0.996264)"/>
    <use xlink:href="#CMMI12-79" transform="translate(801.855074 0) scale(0.996264)"/>
    <use xlink:href="#CMR17-2a" transform="translate(857.289133 0) scale(0.996264)"/>
    <use xlink:href="#CMMI12-3c" transform="translate(892.569901 0) scale(0.996264)"/>
    <use xlink:href="#CMSS17-63" transform="translate(1123.64616 0) scale(0.996264)"/>
    <use xlink:href="#CMSS17-66" transform="translate(1168.56808 0) scale(0.996264)"/>
    <use xlink:href="#CMSS17-6f" transform="translate(1216.773023 0) scale(0.996264)"/>
    <use xlink:href="#CMSS17-6b" transform="translate(1291.002278 0) scale(0.996264)"/>
    <use xlink:href="#CMSS17-76" transform="translate(1313.183001 0) scale(0.996264)"/>
    <use xlink:href="#CMMI12-79" transform="translate(1378.24368 0) scale(0.996264)"/>
    <use xlink:href="#CMSS17-6b" transform="translate(1464.906853 0) scale(0.996264)"/>
    <use xlink:href="#CMSS17-68" transform="translate(1487.087576 0) scale(0.996264)"/>
    <use xlink:href="#CMMI12-54" transform="translate(1546.943347 0) scale(0.996264)"/>
    <use xlink:href="#CMR17-75" transform="translate(1606.937835 -14.943915) scale(0.697382)"/>
    <use xlink:href="#CMR17-67" transform="translate(1631.998657 -14.943915) scale(0.697382)"/>
    <use xlink:href="#CMR17-6f" transform="translate(1660.338489 -14.943915) scale(0.697382)"/>
    <use xlink:href="#CMR17-63" transform="translate(1714.181956 -14.943915) scale(0.697382)"/>
    <use xlink:href="#CMR17-70" transform="translate(1746.165138 -14.943915) scale(0.697382)"/>
    <use xlink:href="#CMR17-76" transform="translate(1779.970025 -14.943915) scale(0.697382)"/>
    <use xlink:href="#CMR17-6b" transform="translate(1804.666446 -14.943915) scale(0.697382)"/>
    <use xlink:href="#CMR17-65" transform="translate(1822.076104 -14.943915) scale(0.697382)"/>
    <use xlink:href="#CMR17-29" transform="translate(1850.914068 0) scale(0.996264)"/>
    <use xlink:href="#CMMI12-79" transform="translate(1886.194836 0) scale(0.996264)"/>
    <use xlink:href="#CMR17-2a" transform="translate(1941.628895 0) scale(0.996264)"/>
    <use xlink:href="#CMSY10-16" transform="translate(2004.583672 0) scale(0.996264)"/>
    <use xlink:href="#CMMI12-1d" transform="translate(2109.745148 0) scale(0.996264)"/>
   </g>
  </g>
 </g>
</svg>
